

<svg version="1.0" xmlns="http://www.w3.org/2000/svg"
 width="200.000000pt" height="200.000000pt" viewBox="0 0 200.000000 200.000000"
 preserveAspectRatio="xMidYMid meet">
<g transform="translate(0.000000,200.000000) scale(0.022624,-0.022779)"
fill="#ffffff" stroke="#ffffff" fill-opacity="1" stroke-opacity="0.8">
<path d="M2795 7412 c-1051 -527 -1614 -815 -1623 -829 -12 -19 -11 -24 7 -42
12 -12 21 -27 21 -34 0 -14 3221 -1627 3250 -1627 11 0 747 363 1635 807
l1615 808 0 31 c0 21 -10 39 -32 61 -33 31 -3224 1634 -3250 1632 -7 0 -737
-363 -1623 -807z m3228 -43 l1602 -802 -1603 -801 -1602 -801 -1602 801 -1603
801 1600 801 c880 441 1601 801 1603 801 1 1 723 -360 1605 -800z"/>
<path d="M3530 7021 l-1115 -558 750 -376 750 -375 125 63 125 63 125 -63 125
-63 375 188 375 187 -125 63 -125 63 123 61 122 61 125 -63 125 -62 370 185
c204 102 370 189 370 193 0 4 -53 34 -117 66 l-118 58 118 59 c64 33 117 63
117 67 0 11 -1467 742 -1488 741 -9 0 -519 -251 -1132 -558z m1830 135 l665
-333 -72 -37 c-79 -39 -100 -64 -83 -96 6 -11 15 -20 20 -20 6 0 10 -8 10 -18
0 -12 21 -28 63 -49 l62 -30 -307 -154 -308 -154 -125 63 -125 62 -140 -70
c-76 -38 -144 -78 -149 -89 -8 -14 -6 -25 9 -44 11 -14 20 -30 20 -36 0 -6 29
-25 65 -43 l65 -33 -310 -155 -310 -155 -125 63 -125 62 -125 -62 -125 -62
-666 334 -667 334 1054 527 c580 290 1056 528 1059 528 3 0 304 -150 670 -333z"/>
<path d="M4519 7065 c-213 -107 -389 -201 -393 -210 -3 -9 4 -34 17 -56 21
-39 41 -50 399 -230 208 -104 387 -189 398 -189 27 0 761 366 778 388 44 58 5
86 -425 301 -211 105 -384 191 -385 190 -2 0 -177 -87 -389 -194z m764 -41
l372 -187 -373 -186 -372 -186 -372 186 -373 186 370 186 c204 102 371 186
373 186 1 1 170 -83 375 -185z"/>
<path d="M3519 6565 c-213 -107 -389 -201 -393 -210 -3 -9 4 -34 17 -57 21
-38 40 -49 400 -229 208 -104 387 -189 398 -189 16 0 773 370 788 386 13 13 1
63 -20 85 -21 23 -776 410 -796 408 -5 0 -182 -87 -394 -194z m766 -412 l-370
-185 -367 183 c-203 101 -368 186 -368 189 0 3 165 87 366 187 l366 182 371
-186 372 -185 -370 -185z"/>
<path d="M1030 6340 c-20 -20 -20 -33 -20 -1989 0 -1953 0 -1968 20 -1994 11
-14 20 -30 20 -36 0 -6 730 -376 1623 -821 1208 -604 1628 -809 1644 -804 11
3 24 16 27 27 3 12 6 909 6 1993 l0 1970 -27 31 c-20 22 -468 251 -1640 837
-887 443 -1617 806 -1623 806 -5 0 -19 -9 -30 -20z m3240 -3590 c0 -1078 -3
-1960 -6 -1960 -3 0 -723 359 -1600 797 l-1594 797 0 1963 0 1963 1600 -800
1600 -800 0 -1960z"/>
<path d="M2370 4890 l0 -150 -120 60 c-66 33 -122 60 -125 60 -3 0 -5 -68 -5
-150 l0 -150 -120 60 c-66 33 -122 60 -125 60 -3 0 -5 -205 -5 -455 0 -302 -3
-455 -10 -455 -6 0 -60 25 -120 55 -60 30 -112 55 -115 55 -3 0 -5 -277 -5
-615 l0 -615 240 -120 c132 -66 244 -120 250 -120 6 0 10 105 10 300 0 165 2
300 5 300 3 0 228 -111 500 -247 l495 -248 0 -307 0 -308 250 -125 c137 -69
252 -125 255 -125 3 0 5 277 5 615 l0 615 -125 62 -125 63 0 462 0 463 -125
62 -125 63 0 152 0 153 -130 65 -130 65 0 154 0 154 -241 121 c-132 66 -244
121 -250 121 -5 0 -9 -63 -9 -150z m270 -60 l180 -90 0 -130 c0 -117 2 -132
20 -150 11 -11 20 -26 20 -33 0 -7 47 -36 105 -65 l105 -52 0 -129 c0 -113 2
-131 20 -154 11 -14 20 -30 20 -36 0 -6 50 -36 110 -66 l110 -55 0 -431 0
-430 25 -42 c21 -36 39 -50 125 -92 l100 -49 0 -548 c0 -301 -2 -548 -5 -548
-3 0 -88 41 -190 92 l-184 92 -3 296 -3 295 -25 26 c-14 15 -252 140 -538 283
l-513 256 -24 -24 -25 -25 0 -271 0 -270 -185 92 -185 93 0 547 c0 302 2 548
5 548 3 0 46 -20 95 -45 97 -49 133 -52 144 -12 3 12 6 210 6 439 l0 417 93
-45 c101 -49 140 -52 151 -11 3 12 6 70 6 130 0 59 2 107 5 107 3 0 46 -20 95
-45 97 -49 133 -52 144 -12 3 12 6 70 6 130 0 59 2 107 5 107 3 0 86 -41 185
-90z"/>
<path d="M2340 4460 c-20 -20 -20 -33 -20 -644 0 -608 0 -624 20 -649 11 -14
20 -29 20 -34 0 -4 115 -66 255 -136 285 -142 320 -152 330 -94 3 17 5 309 3
647 l-3 615 -25 26 c-20 21 -535 289 -555 289 -3 0 -14 -9 -25 -20z m290 -160
l240 -120 0 -610 c0 -336 -2 -610 -5 -610 -3 0 -115 55 -250 122 l-245 123 0
607 c0 402 3 608 10 608 6 0 118 -54 250 -120z"/>
<path d="M6155 5554 c-885 -443 -1616 -813 -1622 -822 -10 -12 -13 -425 -13
-1988 0 -1956 0 -1971 20 -1997 11 -14 20 -30 20 -35 0 -44 55 -18 1667 787
l1621 810 7 53 c3 29 5 926 3 1993 l-3 1941 -33 32 c-18 18 -38 32 -45 31 -7
0 -736 -362 -1622 -805z m1615 -1207 l0 -1963 -1594 -797 c-877 -438 -1597
-797 -1600 -797 -3 0 -6 882 -6 1960 l0 1960 1598 799 c878 440 1598 800 1600
800 1 1 2 -882 2 -1962z"/>
<path d="M6273 4962 l-613 -307 0 -153 0 -152 -125 -62 -125 -63 0 -1067 c0
-588 2 -1068 5 -1068 3 0 55 25 115 55 60 30 114 55 120 55 6 0 10 -53 10
-145 0 -80 2 -145 5 -145 3 0 284 140 625 310 l620 310 0 150 c0 94 -4 150
-10 150 -6 0 -231 -110 -500 -245 l-490 -245 0 912 0 913 498 250 497 250 3
303 c2 238 0 302 -10 301 -7 0 -289 -138 -625 -307z m577 -50 l0 -227 -481
-240 c-264 -132 -487 -249 -495 -260 -12 -16 -14 -164 -14 -933 l0 -913 23
-40 c12 -23 32 -42 46 -46 19 -5 126 45 468 216 244 121 446 221 448 221 3 0
5 -31 5 -70 l0 -70 -550 -275 c-302 -151 -552 -275 -554 -275 -2 0 -6 43 -8
95 l-3 94 -38 36 -37 35 -80 -40 c-44 -22 -82 -40 -85 -40 -3 0 -5 445 -5 988
l0 988 119 59 c139 68 131 53 131 244 l0 126 553 277 c303 152 553 277 555
277 1 1 2 -101 2 -227z"/>
</g>
</svg>
