<svg width="24" height="24" viewBox="0 0 24 24" fill="none" xmlns="http://www.w3.org/2000/svg">
<path fill-rule="evenodd" clip-rule="evenodd" d="M22 12C22 17.5228 17.5228 22 12 22C6.47715 22 2 17.5228 2 12C2 6.47715 6.47715 2 12 2C17.5228 2 22 6.47715 22 12ZM18.7267 8.68696C19.1061 8.28561 19.0883 7.6527 18.687 7.2733C18.2856 6.89391 17.6527 6.9117 17.2733 7.31304L10.4375 14.5443L7.7267 11.6767C7.3473 11.2753 6.71439 11.2575 6.31304 11.6369C5.9117 12.0163 5.89391 12.6492 6.2733 13.0506L9.7108 16.687C9.89969 16.8868 10.1625 17 10.4375 17C10.7125 17 10.9753 16.8868 11.1642 16.687L18.7267 8.68696Z" fill="#24B396"/>
</svg>
